<svg width="43" height="20" viewBox="0 0 43 20" fill="none" xmlns="http://www.w3.org/2000/svg">
<rect width="42.83" height="20" rx="10" fill="#DCFCE7"/>
<path d="M10.84 14V5.36H15.88V6.428H11.908V9.146H15.16V10.214H11.908V14H10.84ZM18.5648 14.18C18.0808 14.18 17.6748 14.092 17.3468 13.916C17.0228 13.736 16.7768 13.5 16.6088 13.208C16.4448 12.916 16.3628 12.596 16.3628 12.248C16.3628 11.908 16.4268 11.614 16.5548 11.366C16.6868 11.114 16.8708 10.906 17.1068 10.742C17.3428 10.574 17.6248 10.442 17.9528 10.346C18.2608 10.262 18.6048 10.19 18.9848 10.13C19.3688 10.066 19.7568 10.008 20.1488 9.956C20.5408 9.904 20.9068 9.854 21.2468 9.806L20.8628 10.028C20.8748 9.452 20.7588 9.026 20.5148 8.75C20.2748 8.474 19.8588 8.336 19.2668 8.336C18.8748 8.336 18.5308 8.426 18.2348 8.606C17.9428 8.782 17.7368 9.07 17.6168 9.47L16.6028 9.164C16.7588 8.596 17.0608 8.15 17.5088 7.826C17.9568 7.502 18.5468 7.34 19.2788 7.34C19.8668 7.34 20.3708 7.446 20.7908 7.658C21.2148 7.866 21.5188 8.182 21.7028 8.606C21.7948 8.806 21.8528 9.024 21.8768 9.26C21.9008 9.492 21.9128 9.736 21.9128 9.992V14H20.9648V12.446L21.1868 12.59C20.9428 13.114 20.6008 13.51 20.1608 13.778C19.7248 14.046 19.1928 14.18 18.5648 14.18ZM18.7268 13.286C19.1108 13.286 19.4428 13.218 19.7228 13.082C20.0068 12.942 20.2348 12.76 20.4068 12.536C20.5788 12.308 20.6908 12.06 20.7428 11.792C20.8028 11.592 20.8348 11.37 20.8388 11.126C20.8468 10.878 20.8508 10.688 20.8508 10.556L21.2228 10.718C20.8748 10.766 20.5328 10.812 20.1968 10.856C19.8608 10.9 19.5428 10.948 19.2428 11C18.9428 11.048 18.6728 11.106 18.4328 11.174C18.2568 11.23 18.0908 11.302 17.9348 11.39C17.7828 11.478 17.6588 11.592 17.5628 11.732C17.4708 11.868 17.4248 12.038 17.4248 12.242C17.4248 12.418 17.4688 12.586 17.5568 12.746C17.6488 12.906 17.7888 13.036 17.9768 13.136C18.1688 13.236 18.4188 13.286 18.7268 13.286ZM26.2328 14.18C25.5888 14.18 25.0328 14.034 24.5648 13.742C24.1008 13.45 23.7428 13.046 23.4908 12.53C23.2388 12.014 23.1128 11.422 23.1128 10.754C23.1128 10.074 23.2408 9.478 23.4968 8.966C23.7528 8.454 24.1148 8.056 24.5828 7.772C25.0508 7.484 25.6008 7.34 26.2328 7.34C26.8808 7.34 27.4388 7.486 27.9068 7.778C28.3748 8.066 28.7328 8.468 28.9808 8.984C29.2328 9.496 29.3588 10.086 29.3588 10.754C29.3588 11.43 29.2328 12.026 28.9808 12.542C28.7288 13.054 28.3688 13.456 27.9008 13.748C27.4328 14.036 26.8768 14.18 26.2328 14.18ZM26.2328 13.166C26.9048 13.166 27.4048 12.942 27.7328 12.494C28.0608 12.046 28.2248 11.466 28.2248 10.754C28.2248 10.022 28.0588 9.44 27.7268 9.008C27.3948 8.572 26.8968 8.354 26.2328 8.354C25.7808 8.354 25.4088 8.456 25.1168 8.66C24.8248 8.864 24.6068 9.146 24.4628 9.506C24.3188 9.866 24.2468 10.282 24.2468 10.754C24.2468 11.482 24.4148 12.066 24.7508 12.506C25.0868 12.946 25.5808 13.166 26.2328 13.166ZM30.7998 14V5.18H31.8678V14H30.7998Z" fill="#166534"/>
</svg>
