<svg width="25" height="32" viewBox="0 0 25 32" fill="none" xmlns="http://www.w3.org/2000/svg">
<path d="M5.20439 25.7222C4.66966 25.7222 4.21191 25.5318 3.83112 25.151C3.45034 24.7702 3.25994 24.3124 3.25994 23.7777V12.8159C2.96828 12.6377 2.73332 12.4068 2.55508 12.1232C2.37684 11.8396 2.28772 11.5115 2.28772 11.1388V8.22217C2.28772 7.68744 2.47811 7.22969 2.8589 6.8489C3.23969 6.46812 3.69744 6.27772 4.23216 6.27772H19.7877C20.3224 6.27772 20.7802 6.46812 21.161 6.8489C21.5418 7.22969 21.7322 7.68744 21.7322 8.22217V11.1388C21.7322 11.5115 21.643 11.8396 21.4648 12.1232C21.2866 12.4068 21.0516 12.6377 20.7599 12.8159V23.7777C20.7599 24.3124 20.5695 24.7702 20.1888 25.151C19.808 25.5318 19.3502 25.7222 18.8155 25.7222H5.20439ZM5.20439 13.0833V23.7777H18.8155V13.0833H5.20439ZM4.23216 11.1388H19.7877V8.22217H4.23216V11.1388ZM9.09328 17.9444H14.9266V15.9999H9.09328V17.9444Z" fill="#135BEC"/>
</svg>
