<svg width="76" height="20" viewBox="0 0 76 20" fill="none" xmlns="http://www.w3.org/2000/svg">
<rect width="75.64" height="20" rx="10" fill="#FEE2E2"/>
<path d="M10.84 14V5.36H15.88V6.428H11.908V9.146H15.16V10.214H11.908V14H10.84ZM18.5648 14.18C18.0808 14.18 17.6748 14.092 17.3468 13.916C17.0228 13.736 16.7768 13.5 16.6088 13.208C16.4448 12.916 16.3628 12.596 16.3628 12.248C16.3628 11.908 16.4268 11.614 16.5548 11.366C16.6868 11.114 16.8708 10.906 17.1068 10.742C17.3428 10.574 17.6248 10.442 17.9528 10.346C18.2608 10.262 18.6048 10.19 18.9848 10.13C19.3688 10.066 19.7568 10.008 20.1488 9.956C20.5408 9.904 20.9068 9.854 21.2468 9.806L20.8628 10.028C20.8748 9.452 20.7588 9.026 20.5148 8.75C20.2748 8.474 19.8588 8.336 19.2668 8.336C18.8748 8.336 18.5308 8.426 18.2348 8.606C17.9428 8.782 17.7368 9.07 17.6168 9.47L16.6028 9.164C16.7588 8.596 17.0608 8.15 17.5088 7.826C17.9568 7.502 18.5468 7.34 19.2788 7.34C19.8668 7.34 20.3708 7.446 20.7908 7.658C21.2148 7.866 21.5188 8.182 21.7028 8.606C21.7948 8.806 21.8528 9.024 21.8768 9.26C21.9008 9.492 21.9128 9.736 21.9128 9.992V14H20.9648V12.446L21.1868 12.59C20.9428 13.114 20.6008 13.51 20.1608 13.778C19.7248 14.046 19.1928 14.18 18.5648 14.18ZM18.7268 13.286C19.1108 13.286 19.4428 13.218 19.7228 13.082C20.0068 12.942 20.2348 12.76 20.4068 12.536C20.5788 12.308 20.6908 12.06 20.7428 11.792C20.8028 11.592 20.8348 11.37 20.8388 11.126C20.8468 10.878 20.8508 10.688 20.8508 10.556L21.2228 10.718C20.8748 10.766 20.5328 10.812 20.1968 10.856C19.8608 10.9 19.5428 10.948 19.2428 11C18.9428 11.048 18.6728 11.106 18.4328 11.174C18.2568 11.23 18.0908 11.302 17.9348 11.39C17.7828 11.478 17.6588 11.592 17.5628 11.732C17.4708 11.868 17.4248 12.038 17.4248 12.242C17.4248 12.418 17.4688 12.586 17.5568 12.746C17.6488 12.906 17.7888 13.036 17.9768 13.136C18.1688 13.236 18.4188 13.286 18.7268 13.286ZM26.2328 14.18C25.5888 14.18 25.0328 14.034 24.5648 13.742C24.1008 13.45 23.7428 13.046 23.4908 12.53C23.2388 12.014 23.1128 11.422 23.1128 10.754C23.1128 10.074 23.2408 9.478 23.4968 8.966C23.7528 8.454 24.1148 8.056 24.5828 7.772C25.0508 7.484 25.6008 7.34 26.2328 7.34C26.8808 7.34 27.4388 7.486 27.9068 7.778C28.3748 8.066 28.7328 8.468 28.9808 8.984C29.2328 9.496 29.3588 10.086 29.3588 10.754C29.3588 11.43 29.2328 12.026 28.9808 12.542C28.7288 13.054 28.3688 13.456 27.9008 13.748C27.4328 14.036 26.8768 14.18 26.2328 14.18ZM26.2328 13.166C26.9048 13.166 27.4048 12.942 27.7328 12.494C28.0608 12.046 28.2248 11.466 28.2248 10.754C28.2248 10.022 28.0588 9.44 27.7268 9.008C27.3948 8.572 26.8968 8.354 26.2328 8.354C25.7808 8.354 25.4088 8.456 25.1168 8.66C24.8248 8.864 24.6068 9.146 24.4628 9.506C24.3188 9.866 24.2468 10.282 24.2468 10.754C24.2468 11.482 24.4148 12.066 24.7508 12.506C25.0868 12.946 25.5808 13.166 26.2328 13.166ZM30.7998 14V5.18H31.8678V14H30.7998ZM38.8785 14.18C38.2425 14.18 37.6865 14.04 37.2105 13.76C36.7385 13.476 36.3705 13.082 36.1065 12.578C35.8425 12.07 35.7105 11.478 35.7105 10.802C35.7105 10.094 35.8405 9.482 36.1005 8.966C36.3605 8.446 36.7225 8.046 37.1865 7.766C37.6545 7.482 38.2025 7.34 38.8305 7.34C39.4825 7.34 40.0365 7.49 40.4925 7.79C40.9525 8.09 41.2965 8.518 41.5245 9.074C41.7565 9.63 41.8565 10.292 41.8245 11.06H40.7445V10.676C40.7325 9.88 40.5705 9.286 40.2585 8.894C39.9465 8.498 39.4825 8.3 38.8665 8.3C38.2065 8.3 37.7045 8.512 37.3605 8.936C37.0165 9.36 36.8445 9.968 36.8445 10.76C36.8445 11.524 37.0165 12.116 37.3605 12.536C37.7045 12.956 38.1945 13.166 38.8305 13.166C39.2585 13.166 39.6305 13.068 39.9465 12.872C40.2625 12.676 40.5105 12.394 40.6905 12.026L41.7165 12.38C41.4645 12.952 41.0845 13.396 40.5765 13.712C40.0725 14.024 39.5065 14.18 38.8785 14.18ZM36.4845 11.06V10.202H41.2725V11.06H36.4845ZM50.7305 14L50.7365 9.854C50.7365 9.37 50.6065 8.992 50.3465 8.72C50.0905 8.444 49.7565 8.306 49.3445 8.306C49.1045 8.306 48.8765 8.362 48.6605 8.474C48.4445 8.582 48.2685 8.754 48.1325 8.99C47.9965 9.222 47.9285 9.52 47.9285 9.884L47.3645 9.656C47.3565 9.196 47.4505 8.794 47.6465 8.45C47.8465 8.102 48.1185 7.832 48.4625 7.64C48.8065 7.448 49.1945 7.352 49.6265 7.352C50.3025 7.352 50.8345 7.558 51.2225 7.97C51.6105 8.378 51.8045 8.928 51.8045 9.62L51.7985 14H50.7305ZM42.9785 14V7.52H43.9325V9.254H44.0525V14H42.9785ZM46.8605 14L46.8665 9.896C46.8665 9.4 46.7385 9.012 46.4825 8.732C46.2265 8.448 45.8865 8.306 45.4625 8.306C45.0425 8.306 44.7025 8.45 44.4425 8.738C44.1825 9.026 44.0525 9.408 44.0525 9.884L43.4885 9.548C43.4885 9.128 43.5885 8.752 43.7885 8.42C43.9885 8.088 44.2605 7.828 44.6045 7.64C44.9485 7.448 45.3385 7.352 45.7745 7.352C46.2105 7.352 46.5905 7.444 46.9145 7.628C47.2385 7.812 47.4885 8.076 47.6645 8.42C47.8405 8.76 47.9285 9.166 47.9285 9.638L47.9225 14H46.8605ZM55.2093 14.18C54.7253 14.18 54.3193 14.092 53.9913 13.916C53.6673 13.736 53.4213 13.5 53.2533 13.208C53.0893 12.916 53.0073 12.596 53.0073 12.248C53.0073 11.908 53.0713 11.614 53.1993 11.366C53.3313 11.114 53.5153 10.906 53.7513 10.742C53.9873 10.574 54.2693 10.442 54.5973 10.346C54.9053 10.262 55.2493 10.19 55.6293 10.13C56.0133 10.066 56.4013 10.008 56.7933 9.956C57.1853 9.904 57.5513 9.854 57.8913 9.806L57.5073 10.028C57.5193 9.452 57.4033 9.026 57.1593 8.75C56.9193 8.474 56.5033 8.336 55.9113 8.336C55.5193 8.336 55.1753 8.426 54.8793 8.606C54.5873 8.782 54.3813 9.07 54.2613 9.47L53.2473 9.164C53.4033 8.596 53.7053 8.15 54.1533 7.826C54.6013 7.502 55.1913 7.34 55.9233 7.34C56.5113 7.34 57.0153 7.446 57.4353 7.658C57.8593 7.866 58.1633 8.182 58.3473 8.606C58.4393 8.806 58.4973 9.024 58.5213 9.26C58.5453 9.492 58.5573 9.736 58.5573 9.992V14H57.6093V12.446L57.8313 12.59C57.5873 13.114 57.2453 13.51 56.8053 13.778C56.3693 14.046 55.8373 14.18 55.2093 14.18ZM55.3713 13.286C55.7553 13.286 56.0873 13.218 56.3673 13.082C56.6513 12.942 56.8793 12.76 57.0513 12.536C57.2233 12.308 57.3353 12.06 57.3873 11.792C57.4473 11.592 57.4793 11.37 57.4833 11.126C57.4913 10.878 57.4953 10.688 57.4953 10.556L57.8673 10.718C57.5193 10.766 57.1773 10.812 56.8413 10.856C56.5053 10.9 56.1873 10.948 55.8873 11C55.5873 11.048 55.3173 11.106 55.0773 11.174C54.9013 11.23 54.7353 11.302 54.5793 11.39C54.4273 11.478 54.3033 11.592 54.2073 11.732C54.1153 11.868 54.0693 12.038 54.0693 12.242C54.0693 12.418 54.1133 12.586 54.2013 12.746C54.2933 12.906 54.4333 13.036 54.6213 13.136C54.8133 13.236 55.0633 13.286 55.3713 13.286ZM62.5653 14.174C61.7933 14.174 61.1593 14.006 60.6633 13.67C60.1713 13.33 59.8693 12.856 59.7573 12.248L60.8493 12.074C60.9373 12.426 61.1393 12.706 61.4553 12.914C61.7713 13.118 62.1633 13.22 62.6313 13.22C63.0753 13.22 63.4233 13.128 63.6753 12.944C63.9273 12.76 64.0533 12.51 64.0533 12.194C64.0533 12.01 64.0113 11.862 63.9273 11.75C63.8433 11.634 63.6693 11.526 63.4053 11.426C63.1453 11.326 62.7513 11.206 62.2233 11.066C61.6513 10.914 61.2013 10.756 60.8733 10.592C60.5453 10.428 60.3113 10.238 60.1713 10.022C60.0313 9.806 59.9613 9.544 59.9613 9.236C59.9613 8.856 60.0653 8.524 60.2733 8.24C60.4813 7.952 60.7713 7.73 61.1433 7.574C61.5193 7.418 61.9553 7.34 62.4513 7.34C62.9433 7.34 63.3833 7.418 63.7713 7.574C64.1593 7.73 64.4713 7.952 64.7073 8.24C64.9473 8.524 65.0893 8.856 65.1333 9.236L64.0413 9.434C63.9893 9.086 63.8213 8.812 63.5373 8.612C63.2573 8.412 62.8953 8.306 62.4513 8.294C62.0313 8.278 61.6893 8.352 61.4253 8.516C61.1653 8.68 61.0353 8.902 61.0353 9.182C61.0353 9.338 61.0833 9.472 61.1793 9.584C61.2793 9.696 61.4613 9.802 61.7253 9.902C61.9933 10.002 62.3813 10.116 62.8893 10.244C63.4613 10.388 63.9113 10.546 64.2393 10.718C64.5713 10.886 64.8073 11.086 64.9473 11.318C65.0873 11.546 65.1573 11.828 65.1573 12.164C65.1573 12.788 64.9273 13.28 64.4673 13.64C64.0073 13.996 63.3733 14.174 62.5653 14.174Z" fill="#991B1B"/>
</svg>
